<svg width="40" height="40" viewBox="0 0 50 50" fill="none" xmlns="http://www.w3.org/2000/svg">
<circle cx="19.8743" cy="38.1223" r="5.9274" transform="rotate(73.9997 19.8743 38.1223)" stroke="#798486" stroke-width="2.5"/>
<circle cx="29.3791" cy="10.3791" r="5.9274" transform="rotate(-112.52 29.3791 10.3791)" stroke="#798486" stroke-width="2.5"/>
<path d="M16.8075 41.7402C12.9971 42.8328 9.02238 40.6297 7.92974 36.8193C6.83711 33.0088 9.04029 29.0341 12.8507 27.9415C16.6611 26.8489 20.6358 29.0521 21.7284 32.8625C22.8211 36.6729 20.6179 40.6476 16.8075 41.7402Z" fill="white"/>
<path fill-rule="evenodd" clip-rule="evenodd" d="M10.3329 36.1301C11.0449 38.6133 13.6352 40.0491 16.1184 39.3371C18.6016 38.625 20.0373 36.0348 19.3253 33.5516C18.6132 31.0684 16.023 29.6326 13.5398 30.3447C11.0566 31.0567 9.62084 33.647 10.3329 36.1301ZM7.92974 36.8193C9.02238 40.6297 12.9971 42.8328 16.8075 41.7402C20.6179 40.6476 22.8211 36.6729 21.7284 32.8625C20.6358 29.0521 16.6611 26.8489 12.8507 27.9415C9.04029 29.0341 6.83711 33.0088 7.92974 36.8193Z" fill="#798486"/>
<path d="M12.8561 36.7771C9.04572 37.8697 5.07102 35.6665 3.97839 31.8561C2.88575 28.0457 5.08894 24.071 8.89935 22.9784C12.7098 21.8857 16.6845 24.0889 17.7771 27.8993C18.8697 31.7097 16.6665 35.6844 12.8561 36.7771Z" fill="white"/>
<path fill-rule="evenodd" clip-rule="evenodd" d="M6.38154 31.167C7.09359 33.6502 9.68384 35.086 12.167 34.3739C14.6502 33.6619 16.086 31.0716 15.3739 28.5884C14.6619 26.1053 12.0716 24.6695 9.58845 25.3815C7.10527 26.0936 5.66948 28.6838 6.38154 31.167ZM3.97839 31.8561C5.07102 35.6665 9.04572 37.8697 12.8561 36.7771C16.6665 35.6844 18.8697 31.7097 17.7771 27.8993C16.6845 24.0889 12.7098 21.8857 8.89935 22.9784C5.08894 24.071 2.88575 28.0457 3.97839 31.8561Z" fill="#798486"/>
<path d="M32.0152 6.43631C35.6769 4.91807 39.8761 6.65569 41.3943 10.3174C42.9126 13.9791 41.1749 18.1782 37.5133 19.6965C33.8516 21.2147 29.6524 19.4771 28.1342 15.8154C26.6159 12.1537 28.3535 7.95454 32.0152 6.43631Z" fill="white"/>
<path fill-rule="evenodd" clip-rule="evenodd" d="M39.085 11.2749C38.0956 8.88864 35.359 7.75626 32.9728 8.74567C30.5865 9.73508 29.4541 12.4716 30.4435 14.8579C31.4329 17.2441 34.1695 18.3765 36.5557 17.3871C38.942 16.3977 40.0744 13.6612 39.085 11.2749ZM41.3943 10.3174C39.8761 6.65569 35.6769 4.91807 32.0152 6.43631C28.3535 7.95454 26.6159 12.1537 28.1342 15.8154C29.6524 19.4771 33.8516 21.2147 37.5133 19.6965C41.1749 18.1782 42.9126 13.9791 41.3943 10.3174Z" fill="#798486"/>
<path d="M36.5046 10.9187C40.1662 9.40049 44.3654 11.1381 45.8836 14.7998C47.4019 18.4615 45.6643 22.6607 42.0026 24.1789C38.3409 25.6971 34.1417 23.9595 32.6235 20.2978C31.1052 16.6361 32.8429 12.437 36.5046 10.9187Z" fill="white"/>
<path fill-rule="evenodd" clip-rule="evenodd" d="M43.5743 15.7573C42.5849 13.3711 39.8483 12.2387 37.4621 13.2281C35.0758 14.2175 33.9434 16.954 34.9328 19.3403C35.9222 21.7266 38.6588 22.8589 41.045 21.8695C43.4313 20.8801 44.5637 18.1436 43.5743 15.7573ZM45.8836 14.7998C44.3654 11.1381 40.1662 9.40049 36.5046 10.9187C32.8429 12.437 31.1052 16.6361 32.6235 20.2978C34.1417 23.9595 38.3409 25.6971 42.0026 24.1789C45.6643 22.6607 47.4019 18.4615 45.8836 14.7998Z" fill="#798486"/>
<path d="M42.7383 27.2396C41.7994 36.2151 34.3627 39.9933 30.7617 40.7604" stroke="#798486" stroke-width="3"/>
<path d="M7.61086 20.7036C8.41146 11.7148 15.7891 7.8225 19.3778 6.99997" stroke="#798486" stroke-width="3"/>
</svg>
