<svg width="40" height="40" viewBox="0 0 51 50" fill="none" xmlns="http://www.w3.org/2000/svg">
<mask id="mask0_2_880" style="mask-type:alpha" maskUnits="userSpaceOnUse" x="0" y="0" width="51" height="50">
<rect x="0.333374" width="50" height="50" fill="#D9D9D9"/>
</mask>
<g mask="url(#mask0_2_880)">
<path d="M12.8333 29.2187H29.1354V26.0937H12.8333V29.2187ZM12.8333 22.4479H37.8333V19.3229H12.8333V22.4479ZM12.8333 15.6771H37.8333V12.5521H12.8333V15.6771ZM4.5 45.8333V7.29166C4.5 6.45832 4.8125 5.72916 5.4375 5.10416C6.0625 4.47916 6.79167 4.16666 7.625 4.16666H43.0417C43.875 4.16666 44.6042 4.47916 45.2292 5.10416C45.8542 5.72916 46.1667 6.45832 46.1667 7.29166V34.375C46.1667 35.2083 45.8542 35.9375 45.2292 36.5625C44.6042 37.1875 43.875 37.5 43.0417 37.5H12.8333L4.5 45.8333ZM11.4792 34.375H43.0417V7.29166H7.625V38.5417L11.4792 34.375Z" fill="#798486"/>
</g>
</svg>
