<svg width="40" height="40" viewBox="0 0 50 50" fill="none" xmlns="http://www.w3.org/2000/svg">
<mask id="mask0_32_42" style="mask-type:alpha" maskUnits="userSpaceOnUse" x="0" y="0" width="50" height="50">
<rect width="50" height="50" fill="#D9D9D9"/>
</mask>
<g mask="url(#mask0_32_42)">
<path d="M7.29169 35.5729V40.625H42.7084V35.5729H7.29169ZM7.29169 12.5H13.8021C13.6285 12.1875 13.4896 11.7969 13.3854 11.3281C13.2813 10.8594 13.2292 10.434 13.2292 10.0521C13.2292 8.41728 13.8021 7.02766 14.9479 5.88325C16.0938 4.73887 17.4653 4.16669 19.0625 4.16669C20.1299 4.16669 21.1172 4.43578 22.0245 4.97398C22.9318 5.51217 23.6459 6.19794 24.1667 7.03127L25.0261 8.38544L25.8854 7.03127C26.441 6.16321 27.1531 5.46877 28.0216 4.94794C28.8902 4.4271 29.8256 4.16669 30.8278 4.16669C32.4982 4.16669 33.9063 4.73092 35.0521 5.8594C36.1979 6.98787 36.7709 8.39171 36.7709 10.0709C36.7709 10.4403 36.7275 10.816 36.6406 11.1979C36.5538 11.5799 36.4236 12.0139 36.25 12.5H42.7084C43.5417 12.5 44.2709 12.8125 44.8959 13.4375C45.5209 14.0625 45.8334 14.7917 45.8334 15.625V40.625C45.8334 41.4584 45.5209 42.1875 44.8959 42.8125C44.2709 43.4375 43.5417 43.75 42.7084 43.75H7.29169C6.45835 43.75 5.72919 43.4375 5.10419 42.8125C4.47919 42.1875 4.16669 41.4584 4.16669 40.625V15.625C4.16669 14.7917 4.47919 14.0625 5.10419 13.4375C5.72919 12.8125 6.45835 12.5 7.29169 12.5ZM7.29169 30H42.7084V15.625H29.7396L34.9479 22.8646L32.4479 24.7396L25 14.4271L17.5521 24.7396L15.0521 22.8646L20.2604 15.625H7.29169V30ZM19.1146 12.8125C19.8785 12.8125 20.5295 12.5434 21.0677 12.0052C21.6059 11.467 21.875 10.816 21.875 10.0521C21.875 9.28821 21.6059 8.63717 21.0677 8.09898C20.5295 7.56078 19.8785 7.29169 19.1146 7.29169C18.3507 7.29169 17.6997 7.56078 17.1615 8.09898C16.6233 8.63717 16.3542 9.28821 16.3542 10.0521C16.3542 10.816 16.6233 11.467 17.1615 12.0052C17.6997 12.5434 18.3507 12.8125 19.1146 12.8125ZM30.8334 12.8125C31.6302 12.8125 32.2982 12.5434 32.8373 12.0052C33.3763 11.467 33.6459 10.816 33.6459 10.0521C33.6459 9.28821 33.3763 8.63717 32.8373 8.09898C32.2982 7.56078 31.6302 7.29169 30.8334 7.29169C30.1042 7.29169 29.4705 7.56078 28.9323 8.09898C28.3941 8.63717 28.125 9.28821 28.125 10.0521C28.125 10.816 28.3941 11.467 28.9323 12.0052C29.4705 12.5434 30.1042 12.8125 30.8334 12.8125Z" fill="#798486"/>
</g>
</svg>
