<svg width="41" height="40" viewBox="0 0 51 50" fill="none" xmlns="http://www.w3.org/2000/svg">
<mask id="mask0_2_498" style="mask-type:alpha" maskUnits="userSpaceOnUse" x="0" y="0" width="51" height="50">
<rect x="0.666656" width="50" height="50" fill="#D9D9D9"/>
</mask>
<g mask="url(#mask0_2_498)">
<path d="M34.625 28.3333C35.493 28.3333 36.2656 27.9948 36.9427 27.3177C37.6198 26.6406 37.9583 25.8594 37.9583 24.974C37.9583 24.0885 37.6198 23.316 36.9427 22.6562C36.2656 21.9965 35.493 21.6667 34.625 21.6667C33.7569 21.6667 32.9844 21.9965 32.3073 22.6562C31.6302 23.316 31.2917 24.0885 31.2917 24.974C31.2917 25.8594 31.6302 26.6406 32.3073 27.3177C32.9844 27.9948 33.7569 28.3333 34.625 28.3333ZM10.0417 43.75C9.24305 43.75 8.52256 43.4375 7.8802 42.8125C7.23784 42.1875 6.91666 41.4583 6.91666 40.625V9.375C6.91666 8.57639 7.23784 7.8559 7.8802 7.21354C8.52256 6.57118 9.24305 6.25 10.0417 6.25H41.2917C42.125 6.25 42.8542 6.57118 43.4792 7.21354C44.1042 7.8559 44.4167 8.57639 44.4167 9.375V16.3542H41.2917V9.375H10.0417V40.625H41.2917V33.6979H44.4167V40.625C44.4167 41.4583 44.1042 42.1875 43.4792 42.8125C42.8542 43.4375 42.125 43.75 41.2917 43.75H10.0417ZM28.6875 34.7396C27.5069 34.7396 26.5694 34.3924 25.875 33.6979C25.1805 33.0035 24.8333 32.0833 24.8333 30.9375V19.1146C24.8333 17.934 25.1805 17.0052 25.875 16.3281C26.5694 15.651 27.5069 15.3125 28.6875 15.3125H42.75C43.9305 15.3125 44.868 15.651 45.5625 16.3281C46.2569 17.0052 46.6042 17.934 46.6042 19.1146V30.9375C46.6042 32.0833 46.2569 33.0035 45.5625 33.6979C44.868 34.3924 43.9305 34.7396 42.75 34.7396H28.6875ZM43.4792 31.6146V18.4375H27.9583V31.6146H43.4792Z" fill="#798486"/>
</g>
</svg>
