<svg width="40" height="40" viewBox="0 0 40 40" fill="none" xmlns="http://www.w3.org/2000/svg">
<path fill-rule="evenodd" clip-rule="evenodd" d="M5.9221 4.0678C4.83187 4.0678 3.94807 4.9784 3.94807 6.1017V25H29.5L34.5 31H3.94806V33.8983C3.94806 35.0216 4.83186 35.9322 5.92209 35.9322L34.067 35.9322C35.7073 35.9322 36.632 33.9906 35.6284 32.6538L34.5 31L29.5 25L14.7583 4.85721C14.3844 4.3593 13.8079 4.0678 13.1969 4.0678L5.9221 4.0678ZM8.29082e-06 6.10169C8.87136e-06 2.73182 2.65142 2.39769e-06 5.9221 2.97823e-06L13.1969 3.61421e-06C15.0298 3.93956e-06 16.7595 0.874491 17.881 2.36824L38.7511 30.1649C41.7621 34.1751 38.9879 40 34.067 40L5.92209 40C2.65141 40 1.46553e-06 37.2682 2.04607e-06 33.8983L8.29082e-06 6.10169Z" fill="#DEAFA7"/>
<path fill-rule="evenodd" clip-rule="evenodd" d="M34.0779 35.9322C35.1681 35.9322 36.0519 35.0216 36.0519 33.8983V15L10.5 15L5.5 9L36.0519 9V6.1017C36.0519 4.97841 35.1681 4.06781 34.0779 4.0678L5.93303 4.0678C4.29273 4.0678 3.368 6.00943 4.37165 7.34618L5.5 9L10.5 15L25.2417 35.1428C25.6156 35.6407 26.1921 35.9322 26.8031 35.9322L34.0779 35.9322ZM40 33.8983C40 37.2682 37.3486 40 34.0779 40L26.8031 40C24.9702 40 23.2405 39.1255 22.119 37.6318L1.24891 9.83515C-1.76204 5.8249 1.01215 -1.30364e-06 5.93303 0L34.0779 1.00899e-05C37.3486 1.09564e-05 40 2.73183 40 6.10171L40 33.8983Z" fill="#ADADAD"/>
</svg>
